<svg xmlns="http://www.w3.org/2000/svg" width="240" height="320" viewBox="0 0 240 320">
  <rect width="240" height="320" fill="#ffffff" rx="4"/>
  <rect x="0" y="0" width="240" height="4" fill="#6c5ce7"/>
  <rect x="30" y="24" width="120" height="12" rx="2" fill="#333333"/>
  <rect x="30" y="42" width="90" height="6" rx="3" fill="#6c5ce7" opacity="0.6"/>
  <rect x="30" y="54" width="160" height="5" rx="2" fill="#cccccc"/>
  <rect x="30" y="68" width="180" height="1" fill="#eeeeee"/>
  <rect x="30" y="76" width="140" height="5" rx="2" fill="#dddddd"/>
  <rect x="30" y="96" width="200" height="1" fill="#6c5ce7" opacity="0.4"/>
<rect x="30" y="104" width="80" height="8" rx="2" fill="#6c5ce7" opacity="0.7"/>

  <rect x="30" y="116" width="170" height="6" rx="3" fill="#e0e0e0" opacity="0.6"/>
<rect x="30" y="130" width="153" height="6" rx="3" fill="#e0e0e0" opacity="0.6"/>
<rect x="30" y="144" width="136" height="6" rx="3" fill="#e0e0e0" opacity="0.6"/>
<rect x="30" y="158" width="179" height="6" rx="3" fill="#e0e0e0" opacity="0.6"/>

  <rect x="30" y="180" width="200" height="1" fill="#6c5ce7" opacity="0.4"/>
<rect x="30" y="188" width="80" height="8" rx="2" fill="#6c5ce7" opacity="0.7"/>

  <rect x="30" y="200" width="170" height="6" rx="3" fill="#e0e0e0" opacity="0.6"/>
<rect x="30" y="214" width="153" height="6" rx="3" fill="#e0e0e0" opacity="0.6"/>

  <rect x="30" y="240" width="200" height="1" fill="#6c5ce7" opacity="0.4"/>
<rect x="30" y="248" width="80" height="8" rx="2" fill="#6c5ce7" opacity="0.7"/>

  <rect x="30" y="260" width="40" height="14" rx="7" fill="#6c5ce7" opacity="0.15" stroke="#6c5ce7" stroke-width="0.5" stroke-opacity="0.3"/>
  <rect x="76" y="260" width="50" height="14" rx="7" fill="#6c5ce7" opacity="0.15" stroke="#6c5ce7" stroke-width="0.5" stroke-opacity="0.3"/>
  <rect x="132" y="260" width="44" height="14" rx="7" fill="#6c5ce7" opacity="0.15" stroke="#6c5ce7" stroke-width="0.5" stroke-opacity="0.3"/>
  <rect x="30" y="280" width="55" height="14" rx="7" fill="#6c5ce7" opacity="0.15" stroke="#6c5ce7" stroke-width="0.5" stroke-opacity="0.3"/>
  <rect x="91" y="280" width="38" height="14" rx="7" fill="#6c5ce7" opacity="0.15" stroke="#6c5ce7" stroke-width="0.5" stroke-opacity="0.3"/>
</svg>